<svg width="68" height="71" viewBox="0 0 68 71" fill="none" xmlns="http://www.w3.org/2000/svg">
<path d="M9.74796 70.578H58.497C64.3752 70.578 67.3143 68.6224 67.3143 64.7113C67.3143 62.2149 66.5543 59.5572 65.0345 56.7381C63.5147 53.9189 61.3182 51.2681 58.4452 48.7857C55.5721 46.3033 52.0876 44.2766 47.9916 42.7056C43.8956 41.1346 39.2726 40.3491 34.1224 40.3491C28.9825 40.3491 24.3702 41.1346 20.2854 42.7056C16.2005 44.2766 12.7134 46.3033 9.82406 48.7857C6.93466 51.2681 4.73259 53.9189 3.21786 56.7381C1.70307 59.5572 0.945679 62.2149 0.945679 64.7113C0.945679 68.6224 3.87977 70.578 9.74796 70.578ZM8.24706 65.4546C7.57279 65.4546 7.09179 65.3553 6.80406 65.1567C6.51632 64.9581 6.37246 64.6075 6.37246 64.105C6.37246 62.4102 6.98306 60.498 8.20426 58.3684C9.42546 56.2386 11.2202 54.193 13.5886 52.2316C15.9569 50.2702 18.8587 48.6508 22.2939 47.3735C25.7291 46.0961 29.6719 45.4575 34.1224 45.4575C38.573 45.4575 42.5159 46.0961 45.9511 47.3735C49.3863 48.6508 52.2906 50.2702 54.664 52.2316C57.0374 54.193 58.8347 56.2386 60.0559 58.3684C61.2769 60.498 61.8875 62.4102 61.8875 64.105C61.8875 64.6075 61.7492 64.9581 61.4728 65.1567C61.1962 65.3553 60.7046 65.4546 59.998 65.4546H8.24706ZM34.1527 35.3422C37.152 35.3422 39.889 34.5455 42.3637 32.9522C44.8383 31.3588 46.8046 29.217 48.2628 26.5269C49.721 23.8368 50.4501 20.8518 50.4501 17.5718C50.4501 14.3524 49.7215 11.4332 48.2645 8.81435C46.8074 6.19555 44.8472 4.11499 42.3839 2.57265C39.9205 1.03032 37.1767 0.259155 34.1527 0.259155C31.1736 0.259155 28.4468 1.04155 25.9722 2.60635C23.4975 4.17115 21.5261 6.26856 20.0579 8.89856C18.5896 11.5286 17.8605 14.4421 17.8705 17.6392C17.8807 20.8966 18.6204 23.8703 20.0898 26.5605C21.5591 29.2506 23.5204 31.3868 25.9737 32.969C28.4269 34.5511 31.1533 35.3422 34.1527 35.3422ZM34.1527 30.2524C32.1853 30.2524 30.3803 29.6943 28.7377 28.5781C27.0951 27.4619 25.7777 25.9523 24.7855 24.0493C23.7933 22.1463 23.2973 20.0096 23.2973 17.6392C23.2871 15.3292 23.775 13.2527 24.7611 11.4098C25.7471 9.56682 27.0665 8.10159 28.7191 7.01405C30.3717 5.92652 32.1829 5.38275 34.1527 5.38275C36.1449 5.38275 37.9649 5.91839 39.6125 6.98965C41.2601 8.06092 42.5738 9.52055 43.5536 11.3686C44.5334 13.2166 45.0233 15.2843 45.0233 17.5718C45.0233 19.9422 44.5328 22.0845 43.5518 23.9987C42.5708 25.9129 41.2566 27.4337 39.609 28.5612C37.9613 29.6886 36.1425 30.2524 34.1527 30.2524Z" fill="black"/>
</svg>
