<svg width="62" height="62" viewBox="0 0 62 62" fill="none" xmlns="http://www.w3.org/2000/svg">
<path d="M1.29874 60.336C2.07994 61.0847 3.02394 61.459 4.13074 61.459C5.23754 61.459 6.16527 61.0847 6.91394 60.336L30.8397 36.3613L54.8143 60.336C55.563 61.0847 56.4907 61.4671 57.5975 61.4834C58.7043 61.4997 59.6321 61.1172 60.3807 60.336C61.1295 59.5547 61.5038 58.6188 61.5038 57.5283C61.5038 56.4379 61.1295 55.5183 60.3807 54.7695L36.4061 30.7949L60.3807 6.86912C61.1295 6.08792 61.512 5.14392 61.5282 4.03712C61.5445 2.93039 61.162 2.00265 60.3807 1.25392C59.5995 0.505255 58.6636 0.13092 57.5731 0.13092C56.4826 0.13092 55.563 0.505255 54.8143 1.25392L30.8397 25.2285L6.91394 1.25392C6.16527 0.505255 5.22941 0.13092 4.10634 0.13092C2.98327 0.13092 2.04741 0.505255 1.29874 1.25392C0.550018 2.03519 0.175659 2.97106 0.175659 4.06152C0.175659 5.15206 0.550018 6.08792 1.29874 6.86912L25.2733 30.7949L1.29874 54.7695C0.550018 55.5183 0.175659 56.446 0.175659 57.5528C0.175659 58.6595 0.550018 59.5873 1.29874 60.336Z" fill="black"/>
</svg>
