<svg xmlns="http://www.w3.org/2000/svg" width="80" height="80" viewBox="0 0 80 80" fill="none">
<path d="M39.8201 79.1504C45.2238 79.1504 50.3019 78.125 55.0545 76.0742C59.8071 74.0234 63.9982 71.1751 67.6278 67.5293C71.2573 63.8834 74.1056 59.6842 76.1727 54.9316C78.2398 50.179 79.2733 45.1172 79.2733 39.7461C79.2733 34.375 78.2398 29.3132 76.1727 24.5605C74.1056 19.8079 71.2492 15.6087 67.6033 11.9629C63.9575 8.31703 59.7583 5.46873 55.0057 3.418C50.2531 1.3672 45.175 0.341797 39.7713 0.341797C34.4002 0.341797 29.3384 1.3672 24.5858 3.418C19.8332 5.46873 15.6502 8.31703 12.0369 11.9629C8.42363 15.6087 5.58347 19.8079 3.51641 24.5605C1.44936 29.3132 0.415833 34.375 0.415833 39.7461C0.415833 45.1172 1.44936 50.179 3.51641 54.9316C5.58347 59.6842 8.43176 63.8834 12.0613 67.5293C15.6909 71.1751 19.882 74.0234 24.6346 76.0742C29.3872 78.125 34.449 79.1504 39.8201 79.1504ZM39.8201 71.7285C35.393 71.7285 31.2508 70.9066 27.3934 69.2627C23.5359 67.6188 20.1505 65.332 17.2371 62.4023C14.3237 59.4726 12.0451 56.071 10.4012 52.1973C8.75733 48.3236 7.93539 44.1732 7.93539 39.7461C7.93539 35.319 8.74919 31.1686 10.3768 27.2949C12.0044 23.4212 14.2749 20.0195 17.1883 17.0898C20.1017 14.1601 23.4871 11.8734 27.3445 10.2295C31.202 8.58563 35.3442 7.7637 39.7713 7.7637C44.231 7.7637 48.3895 8.58563 52.2469 10.2295C56.1043 11.8734 59.4979 14.1601 62.4276 17.0898C65.3573 20.0195 67.6522 23.4212 69.3123 27.2949C70.9725 31.1686 71.8026 35.319 71.8026 39.7461C71.8026 44.1732 70.9806 48.3236 69.3367 52.1973C67.6928 56.071 65.4142 59.4726 62.5008 62.4023C59.5874 65.332 56.1938 67.6188 52.3201 69.2627C48.4464 70.9066 44.2798 71.7285 39.8201 71.7285ZM25.4647 43.457H54.1756C55.4126 43.457 56.4136 43.1478 57.1785 42.5293C57.9435 41.9108 58.326 41.0157 58.326 39.8438C58.326 38.6393 57.9598 37.7197 57.2274 37.085C56.4949 36.4502 55.4777 36.1328 54.1756 36.1328H25.4647C24.1952 36.1328 23.1779 36.4502 22.4129 37.085C21.6479 37.7197 21.2654 38.6393 21.2654 39.8438C21.2654 41.0157 21.656 41.9108 22.4373 42.5293C23.2186 43.1478 24.2277 43.457 25.4647 43.457Z" fill="black"/>
</svg>